# xmcd
#
# Track frame offsets:
#	150
#	15570
#	31375
#	43280
#	57037
#	71862
#	81997
#	94980
#	106822
#	118550
#	140725
#	150842
#	162045
#
# Disc length: 2372 seconds
#
# Revision: 0
# Processed by: cddbd v1.5.1PL0 Copyright (c) Steve Scherf et al.
# Submitted via: EasyCDDAExtractor 8.0.1.1
#
DISCID=a609420d
DTITLE=Carmen Cavallaro
DYEAR=1900
DGENRE=
TTITLE0=Come Back To Sorrento
TTITLE1=Tango Of Roses
TTITLE2=You'll Always Be The One I Love
TTITLE3=Kiss Me Again
TTITLE4=Indian Summer
TTITLE5=Anything Goes
TTITLE6=It's A Pity To Say Goodnight
TTITLE7=I'll Never Love Again
TTITLE8=Linger In My Arms A Little Longer Baby
TTITLE9=Falling In Love With Love
TTITLE10=Why
TTITLE11=Rumors Are Flying
TTITLE12=Excerpts From Rachmaninoff's Second Piano Concerto
EXTD=
EXTT0=
EXTT1=
EXTT2=
EXTT3=
EXTT4=
EXTT5=
EXTT6=
EXTT7=
EXTT8=
EXTT9=
EXTT10=
EXTT11=
EXTT12=
PLAYORDER=
